<svg xmlns="http://www.w3.org/2000/svg" version="1.1" xmlns:xlink="http://www.w3.org/1999/xlink" xmlns:svgjs="http://svgjs.com/svgjs" width="2560" height="1080" preserveAspectRatio="none" viewBox="0 0 2560 1080"><g mask="url(&quot;#SvgjsMask1105&quot;)" fill="none"><rect width="2560" height="1080" x="0" y="0" fill="#0e2a47"></rect><path d="M37.53 643.33L101.62 680.33L101.62 754.33L37.53 791.33L-26.56 754.33L-26.56 680.33zM101.62 754.33L165.71 791.33L165.71 865.33L101.62 902.33L37.53 865.33L37.53 791.33zM37.53 1087.33L101.62 1124.33L101.62 1198.33L37.53 1235.33L-26.56 1198.33L-26.56 1124.33zM165.71 -22.67L229.79 14.33L229.79 88.33L165.71 125.33L101.62 88.33L101.62 14.33zM229.79 88.33L293.88 125.33L293.88 199.33L229.79 236.33L165.71 199.33L165.71 125.33zM165.71 199.33L229.79 236.33L229.79 310.33L165.71 347.33L101.62 310.33L101.62 236.33zM165.71 643.33L229.79 680.33L229.79 754.33L165.71 791.33L101.62 754.33L101.62 680.33zM293.88 199.33L357.97 236.33L357.97 310.33L293.88 347.33L229.79 310.33L229.79 236.33zM293.88 421.33L357.97 458.33L357.97 532.33L293.88 569.33L229.79 532.33L229.79 458.33zM293.88 643.33L357.97 680.33L357.97 754.33L293.88 791.33L229.79 754.33L229.79 680.33zM357.97 754.33L422.06 791.33L422.06 865.33L357.97 902.33L293.88 865.33L293.88 791.33zM357.97 976.33L422.06 1013.33L422.06 1087.33L357.97 1124.33L293.88 1087.33L293.88 1013.33zM486.14 88.33L550.23 125.33L550.23 199.33L486.14 236.33L422.06 199.33L422.06 125.33zM422.06 1087.33L486.14 1124.33L486.14 1198.33L422.06 1235.33L357.97 1198.33L357.97 1124.33zM550.23 -22.67L614.32 14.33L614.32 88.33L550.23 125.33L486.14 88.33L486.14 14.33zM614.32 88.33L678.41 125.33L678.41 199.33L614.32 236.33L550.23 199.33L550.23 125.33zM550.23 199.33L614.32 236.33L614.32 310.33L550.23 347.33L486.14 310.33L486.14 236.33zM614.32 310.33L678.41 347.33L678.41 421.33L614.32 458.33L550.23 421.33L550.23 347.33zM550.23 865.33L614.32 902.33L614.32 976.33L550.23 1013.33L486.14 976.33L486.14 902.33zM614.32 976.33L678.41 1013.33L678.41 1087.33L614.32 1124.33L550.23 1087.33L550.23 1013.33zM678.41 -22.67L742.49 14.33L742.49 88.33L678.41 125.33L614.32 88.33L614.32 14.33zM742.49 310.33L806.58 347.33L806.58 421.33L742.49 458.33L678.41 421.33L678.41 347.33zM806.58 -22.67L870.67 14.33L870.67 88.33L806.58 125.33L742.49 88.33L742.49 14.33zM806.58 199.33L870.67 236.33L870.67 310.33L806.58 347.33L742.49 310.33L742.49 236.33zM806.58 421.33L870.67 458.33L870.67 532.33L806.58 569.33L742.49 532.33L742.49 458.33zM806.58 643.33L870.67 680.33L870.67 754.33L806.58 791.33L742.49 754.33L742.49 680.33zM870.67 754.33L934.76 791.33L934.76 865.33L870.67 902.33L806.58 865.33L806.58 791.33zM870.67 976.33L934.76 1013.33L934.76 1087.33L870.67 1124.33L806.58 1087.33L806.58 1013.33zM998.85 310.33L1062.93 347.33L1062.93 421.33L998.85 458.33L934.76 421.33L934.76 347.33zM934.76 421.33L998.85 458.33L998.85 532.33L934.76 569.33L870.67 532.33L870.67 458.33zM934.76 865.33L998.85 902.33L998.85 976.33L934.76 1013.33L870.67 976.33L870.67 902.33zM934.76 1087.33L998.85 1124.33L998.85 1198.33L934.76 1235.33L870.67 1198.33L870.67 1124.33zM1062.93 -22.67L1127.02 14.33L1127.02 88.33L1062.93 125.33L998.85 88.33L998.85 14.33zM1127.02 88.33L1191.11 125.33L1191.11 199.33L1127.02 236.33L1062.93 199.33L1062.93 125.33zM1062.93 421.33L1127.02 458.33L1127.02 532.33L1062.93 569.33L998.85 532.33L998.85 458.33zM1127.02 532.33L1191.11 569.33L1191.11 643.33L1127.02 680.33L1062.93 643.33L1062.93 569.33zM1127.02 754.33L1191.11 791.33L1191.11 865.33L1127.02 902.33L1062.93 865.33L1062.93 791.33zM1062.93 865.33L1127.02 902.33L1127.02 976.33L1062.93 1013.33L998.85 976.33L998.85 902.33zM1127.02 976.33L1191.11 1013.33L1191.11 1087.33L1127.02 1124.33L1062.93 1087.33L1062.93 1013.33zM1255.2 310.33L1319.28 347.33L1319.28 421.33L1255.2 458.33L1191.11 421.33L1191.11 347.33zM1383.37 88.33L1447.46 125.33L1447.46 199.33L1383.37 236.33L1319.28 199.33L1319.28 125.33zM1319.28 421.33L1383.37 458.33L1383.37 532.33L1319.28 569.33L1255.2 532.33L1255.2 458.33zM1383.37 976.33L1447.46 1013.33L1447.46 1087.33L1383.37 1124.33L1319.28 1087.33L1319.28 1013.33zM1511.55 88.33L1575.63 125.33L1575.63 199.33L1511.55 236.33L1447.46 199.33L1447.46 125.33zM1511.55 310.33L1575.63 347.33L1575.63 421.33L1511.55 458.33L1447.46 421.33L1447.46 347.33zM1447.46 421.33L1511.55 458.33L1511.55 532.33L1447.46 569.33L1383.37 532.33L1383.37 458.33zM1639.72 88.33L1703.81 125.33L1703.81 199.33L1639.72 236.33L1575.63 199.33L1575.63 125.33zM1575.63 421.33L1639.72 458.33L1639.72 532.33L1575.63 569.33L1511.55 532.33L1511.55 458.33zM1639.72 532.33L1703.81 569.33L1703.81 643.33L1639.72 680.33L1575.63 643.33L1575.63 569.33zM1575.63 865.33L1639.72 902.33L1639.72 976.33L1575.63 1013.33L1511.55 976.33L1511.55 902.33zM1639.72 976.33L1703.81 1013.33L1703.81 1087.33L1639.72 1124.33L1575.63 1087.33L1575.63 1013.33zM1703.81 -22.67L1767.9 14.33L1767.9 88.33L1703.81 125.33L1639.72 88.33L1639.72 14.33zM1767.9 88.33L1831.99 125.33L1831.99 199.33L1767.9 236.33L1703.81 199.33L1703.81 125.33zM1831.99 -22.67L1896.07 14.33L1896.07 88.33L1831.99 125.33L1767.9 88.33L1767.9 14.33zM1896.07 532.33L1960.16 569.33L1960.16 643.33L1896.07 680.33L1831.99 643.33L1831.99 569.33zM1831.99 643.33L1896.07 680.33L1896.07 754.33L1831.99 791.33L1767.9 754.33L1767.9 680.33zM1896.07 976.33L1960.16 1013.33L1960.16 1087.33L1896.07 1124.33L1831.99 1087.33L1831.99 1013.33zM2024.25 310.33L2088.34 347.33L2088.34 421.33L2024.25 458.33L1960.16 421.33L1960.16 347.33zM1960.16 1087.33L2024.25 1124.33L2024.25 1198.33L1960.16 1235.33L1896.07 1198.33L1896.07 1124.33zM2088.34 -22.67L2152.42 14.33L2152.42 88.33L2088.34 125.33L2024.25 88.33L2024.25 14.33zM2088.34 643.33L2152.42 680.33L2152.42 754.33L2088.34 791.33L2024.25 754.33L2024.25 680.33zM2152.42 754.33L2216.51 791.33L2216.51 865.33L2152.42 902.33L2088.34 865.33L2088.34 791.33zM2088.34 1087.33L2152.42 1124.33L2152.42 1198.33L2088.34 1235.33L2024.25 1198.33L2024.25 1124.33zM2280.6 310.33L2344.69 347.33L2344.69 421.33L2280.6 458.33L2216.51 421.33L2216.51 347.33zM2280.6 532.33L2344.69 569.33L2344.69 643.33L2280.6 680.33L2216.51 643.33L2216.51 569.33zM2216.51 865.33L2280.6 902.33L2280.6 976.33L2216.51 1013.33L2152.42 976.33L2152.42 902.33zM2216.51 1087.33L2280.6 1124.33L2280.6 1198.33L2216.51 1235.33L2152.42 1198.33L2152.42 1124.33zM2344.69 199.33L2408.77 236.33L2408.77 310.33L2344.69 347.33L2280.6 310.33L2280.6 236.33zM2408.77 754.33L2472.86 791.33L2472.86 865.33L2408.77 902.33L2344.69 865.33L2344.69 791.33zM2536.95 532.33L2601.04 569.33L2601.04 643.33L2536.95 680.33L2472.86 643.33L2472.86 569.33zM2472.86 1087.33L2536.95 1124.33L2536.95 1198.33L2472.86 1235.33L2408.77 1198.33L2408.77 1124.33z" stroke="#03305d" stroke-width="2"></path><path d="M30.13 643.33 a7.4 7.4 0 1 0 14.8 0 a7.4 7.4 0 1 0 -14.8 0zM94.22 680.33 a7.4 7.4 0 1 0 14.8 0 a7.4 7.4 0 1 0 -14.8 0zM94.22 754.33 a7.4 7.4 0 1 0 14.8 0 a7.4 7.4 0 1 0 -14.8 0zM30.13 791.33 a7.4 7.4 0 1 0 14.8 0 a7.4 7.4 0 1 0 -14.8 0zM-33.96 754.33 a7.4 7.4 0 1 0 14.8 0 a7.4 7.4 0 1 0 -14.8 0zM-33.96 680.33 a7.4 7.4 0 1 0 14.8 0 a7.4 7.4 0 1 0 -14.8 0zM158.31 791.33 a7.4 7.4 0 1 0 14.8 0 a7.4 7.4 0 1 0 -14.8 0zM158.31 865.33 a7.4 7.4 0 1 0 14.8 0 a7.4 7.4 0 1 0 -14.8 0zM94.22 902.33 a7.4 7.4 0 1 0 14.8 0 a7.4 7.4 0 1 0 -14.8 0zM30.13 865.33 a7.4 7.4 0 1 0 14.8 0 a7.4 7.4 0 1 0 -14.8 0zM30.13 1087.33 a7.4 7.4 0 1 0 14.8 0 a7.4 7.4 0 1 0 -14.8 0zM94.22 1124.33 a7.4 7.4 0 1 0 14.8 0 a7.4 7.4 0 1 0 -14.8 0zM94.22 1198.33 a7.4 7.4 0 1 0 14.8 0 a7.4 7.4 0 1 0 -14.8 0zM30.13 1235.33 a7.4 7.4 0 1 0 14.8 0 a7.4 7.4 0 1 0 -14.8 0zM-33.96 1198.33 a7.4 7.4 0 1 0 14.8 0 a7.4 7.4 0 1 0 -14.8 0zM-33.96 1124.33 a7.4 7.4 0 1 0 14.8 0 a7.4 7.4 0 1 0 -14.8 0zM158.31 -22.67 a7.4 7.4 0 1 0 14.8 0 a7.4 7.4 0 1 0 -14.8 0zM222.39 14.33 a7.4 7.4 0 1 0 14.8 0 a7.4 7.4 0 1 0 -14.8 0zM222.39 88.33 a7.4 7.4 0 1 0 14.8 0 a7.4 7.4 0 1 0 -14.8 0zM158.31 125.33 a7.4 7.4 0 1 0 14.8 0 a7.4 7.4 0 1 0 -14.8 0zM94.22 88.33 a7.4 7.4 0 1 0 14.8 0 a7.4 7.4 0 1 0 -14.8 0zM94.22 14.33 a7.4 7.4 0 1 0 14.8 0 a7.4 7.4 0 1 0 -14.8 0zM286.48 125.33 a7.4 7.4 0 1 0 14.8 0 a7.4 7.4 0 1 0 -14.8 0zM286.48 199.33 a7.4 7.4 0 1 0 14.8 0 a7.4 7.4 0 1 0 -14.8 0zM222.39 236.33 a7.4 7.4 0 1 0 14.8 0 a7.4 7.4 0 1 0 -14.8 0zM158.31 199.33 a7.4 7.4 0 1 0 14.8 0 a7.4 7.4 0 1 0 -14.8 0zM222.39 310.33 a7.4 7.4 0 1 0 14.8 0 a7.4 7.4 0 1 0 -14.8 0zM158.31 347.33 a7.4 7.4 0 1 0 14.8 0 a7.4 7.4 0 1 0 -14.8 0zM94.22 310.33 a7.4 7.4 0 1 0 14.8 0 a7.4 7.4 0 1 0 -14.8 0zM94.22 236.33 a7.4 7.4 0 1 0 14.8 0 a7.4 7.4 0 1 0 -14.8 0zM158.31 643.33 a7.4 7.4 0 1 0 14.8 0 a7.4 7.4 0 1 0 -14.8 0zM222.39 680.33 a7.4 7.4 0 1 0 14.8 0 a7.4 7.4 0 1 0 -14.8 0zM222.39 754.33 a7.4 7.4 0 1 0 14.8 0 a7.4 7.4 0 1 0 -14.8 0zM350.57 236.33 a7.4 7.4 0 1 0 14.8 0 a7.4 7.4 0 1 0 -14.8 0zM350.57 310.33 a7.4 7.4 0 1 0 14.8 0 a7.4 7.4 0 1 0 -14.8 0zM286.48 347.33 a7.4 7.4 0 1 0 14.8 0 a7.4 7.4 0 1 0 -14.8 0zM286.48 421.33 a7.4 7.4 0 1 0 14.8 0 a7.4 7.4 0 1 0 -14.8 0zM350.57 458.33 a7.4 7.4 0 1 0 14.8 0 a7.4 7.4 0 1 0 -14.8 0zM350.57 532.33 a7.4 7.4 0 1 0 14.8 0 a7.4 7.4 0 1 0 -14.8 0zM286.48 569.33 a7.4 7.4 0 1 0 14.8 0 a7.4 7.4 0 1 0 -14.8 0zM222.39 532.33 a7.4 7.4 0 1 0 14.8 0 a7.4 7.4 0 1 0 -14.8 0zM222.39 458.33 a7.4 7.4 0 1 0 14.8 0 a7.4 7.4 0 1 0 -14.8 0zM286.48 643.33 a7.4 7.4 0 1 0 14.8 0 a7.4 7.4 0 1 0 -14.8 0zM350.57 680.33 a7.4 7.4 0 1 0 14.8 0 a7.4 7.4 0 1 0 -14.8 0zM350.57 754.33 a7.4 7.4 0 1 0 14.8 0 a7.4 7.4 0 1 0 -14.8 0zM286.48 791.33 a7.4 7.4 0 1 0 14.8 0 a7.4 7.4 0 1 0 -14.8 0zM414.66 791.33 a7.4 7.4 0 1 0 14.8 0 a7.4 7.4 0 1 0 -14.8 0zM414.66 865.33 a7.4 7.4 0 1 0 14.8 0 a7.4 7.4 0 1 0 -14.8 0zM350.57 902.33 a7.4 7.4 0 1 0 14.8 0 a7.4 7.4 0 1 0 -14.8 0zM286.48 865.33 a7.4 7.4 0 1 0 14.8 0 a7.4 7.4 0 1 0 -14.8 0zM350.57 976.33 a7.4 7.4 0 1 0 14.8 0 a7.4 7.4 0 1 0 -14.8 0zM414.66 1013.33 a7.4 7.4 0 1 0 14.8 0 a7.4 7.4 0 1 0 -14.8 0zM414.66 1087.33 a7.4 7.4 0 1 0 14.8 0 a7.4 7.4 0 1 0 -14.8 0zM350.57 1124.33 a7.4 7.4 0 1 0 14.8 0 a7.4 7.4 0 1 0 -14.8 0zM286.48 1087.33 a7.4 7.4 0 1 0 14.8 0 a7.4 7.4 0 1 0 -14.8 0zM286.48 1013.33 a7.4 7.4 0 1 0 14.8 0 a7.4 7.4 0 1 0 -14.8 0zM478.74 88.33 a7.4 7.4 0 1 0 14.8 0 a7.4 7.4 0 1 0 -14.8 0zM542.83 125.33 a7.4 7.4 0 1 0 14.8 0 a7.4 7.4 0 1 0 -14.8 0zM542.83 199.33 a7.4 7.4 0 1 0 14.8 0 a7.4 7.4 0 1 0 -14.8 0zM478.74 236.33 a7.4 7.4 0 1 0 14.8 0 a7.4 7.4 0 1 0 -14.8 0zM414.66 199.33 a7.4 7.4 0 1 0 14.8 0 a7.4 7.4 0 1 0 -14.8 0zM414.66 125.33 a7.4 7.4 0 1 0 14.8 0 a7.4 7.4 0 1 0 -14.8 0zM478.74 1124.33 a7.4 7.4 0 1 0 14.8 0 a7.4 7.4 0 1 0 -14.8 0zM478.74 1198.33 a7.4 7.4 0 1 0 14.8 0 a7.4 7.4 0 1 0 -14.8 0zM414.66 1235.33 a7.4 7.4 0 1 0 14.8 0 a7.4 7.4 0 1 0 -14.8 0zM350.57 1198.33 a7.4 7.4 0 1 0 14.8 0 a7.4 7.4 0 1 0 -14.8 0zM542.83 -22.67 a7.4 7.4 0 1 0 14.8 0 a7.4 7.4 0 1 0 -14.8 0zM606.92 14.33 a7.4 7.4 0 1 0 14.8 0 a7.4 7.4 0 1 0 -14.8 0zM606.92 88.33 a7.4 7.4 0 1 0 14.8 0 a7.4 7.4 0 1 0 -14.8 0zM478.74 14.33 a7.4 7.4 0 1 0 14.8 0 a7.4 7.4 0 1 0 -14.8 0zM671.01 125.33 a7.4 7.4 0 1 0 14.8 0 a7.4 7.4 0 1 0 -14.8 0zM671.01 199.33 a7.4 7.4 0 1 0 14.8 0 a7.4 7.4 0 1 0 -14.8 0zM606.92 236.33 a7.4 7.4 0 1 0 14.8 0 a7.4 7.4 0 1 0 -14.8 0zM606.92 310.33 a7.4 7.4 0 1 0 14.8 0 a7.4 7.4 0 1 0 -14.8 0zM542.83 347.33 a7.4 7.4 0 1 0 14.8 0 a7.4 7.4 0 1 0 -14.8 0zM478.74 310.33 a7.4 7.4 0 1 0 14.8 0 a7.4 7.4 0 1 0 -14.8 0zM671.01 347.33 a7.4 7.4 0 1 0 14.8 0 a7.4 7.4 0 1 0 -14.8 0zM671.01 421.33 a7.4 7.4 0 1 0 14.8 0 a7.4 7.4 0 1 0 -14.8 0zM606.92 458.33 a7.4 7.4 0 1 0 14.8 0 a7.4 7.4 0 1 0 -14.8 0zM542.83 421.33 a7.4 7.4 0 1 0 14.8 0 a7.4 7.4 0 1 0 -14.8 0zM542.83 865.33 a7.4 7.4 0 1 0 14.8 0 a7.4 7.4 0 1 0 -14.8 0zM606.92 902.33 a7.4 7.4 0 1 0 14.8 0 a7.4 7.4 0 1 0 -14.8 0zM606.92 976.33 a7.4 7.4 0 1 0 14.8 0 a7.4 7.4 0 1 0 -14.8 0zM542.83 1013.33 a7.4 7.4 0 1 0 14.8 0 a7.4 7.4 0 1 0 -14.8 0zM478.74 976.33 a7.4 7.4 0 1 0 14.8 0 a7.4 7.4 0 1 0 -14.8 0zM478.74 902.33 a7.4 7.4 0 1 0 14.8 0 a7.4 7.4 0 1 0 -14.8 0zM671.01 1013.33 a7.4 7.4 0 1 0 14.8 0 a7.4 7.4 0 1 0 -14.8 0zM671.01 1087.33 a7.4 7.4 0 1 0 14.8 0 a7.4 7.4 0 1 0 -14.8 0zM606.92 1124.33 a7.4 7.4 0 1 0 14.8 0 a7.4 7.4 0 1 0 -14.8 0zM542.83 1087.33 a7.4 7.4 0 1 0 14.8 0 a7.4 7.4 0 1 0 -14.8 0zM671.01 -22.67 a7.4 7.4 0 1 0 14.8 0 a7.4 7.4 0 1 0 -14.8 0zM735.09 14.33 a7.4 7.4 0 1 0 14.8 0 a7.4 7.4 0 1 0 -14.8 0zM735.09 88.33 a7.4 7.4 0 1 0 14.8 0 a7.4 7.4 0 1 0 -14.8 0zM735.09 310.33 a7.4 7.4 0 1 0 14.8 0 a7.4 7.4 0 1 0 -14.8 0zM799.18 347.33 a7.4 7.4 0 1 0 14.8 0 a7.4 7.4 0 1 0 -14.8 0zM799.18 421.33 a7.4 7.4 0 1 0 14.8 0 a7.4 7.4 0 1 0 -14.8 0zM735.09 458.33 a7.4 7.4 0 1 0 14.8 0 a7.4 7.4 0 1 0 -14.8 0zM799.18 -22.67 a7.4 7.4 0 1 0 14.8 0 a7.4 7.4 0 1 0 -14.8 0zM863.27 14.33 a7.4 7.4 0 1 0 14.8 0 a7.4 7.4 0 1 0 -14.8 0zM863.27 88.33 a7.4 7.4 0 1 0 14.8 0 a7.4 7.4 0 1 0 -14.8 0zM799.18 125.33 a7.4 7.4 0 1 0 14.8 0 a7.4 7.4 0 1 0 -14.8 0zM799.18 199.33 a7.4 7.4 0 1 0 14.8 0 a7.4 7.4 0 1 0 -14.8 0zM863.27 236.33 a7.4 7.4 0 1 0 14.8 0 a7.4 7.4 0 1 0 -14.8 0zM863.27 310.33 a7.4 7.4 0 1 0 14.8 0 a7.4 7.4 0 1 0 -14.8 0zM735.09 236.33 a7.4 7.4 0 1 0 14.8 0 a7.4 7.4 0 1 0 -14.8 0zM863.27 458.33 a7.4 7.4 0 1 0 14.8 0 a7.4 7.4 0 1 0 -14.8 0zM863.27 532.33 a7.4 7.4 0 1 0 14.8 0 a7.4 7.4 0 1 0 -14.8 0zM799.18 569.33 a7.4 7.4 0 1 0 14.8 0 a7.4 7.4 0 1 0 -14.8 0zM735.09 532.33 a7.4 7.4 0 1 0 14.8 0 a7.4 7.4 0 1 0 -14.8 0zM799.18 643.33 a7.4 7.4 0 1 0 14.8 0 a7.4 7.4 0 1 0 -14.8 0zM863.27 680.33 a7.4 7.4 0 1 0 14.8 0 a7.4 7.4 0 1 0 -14.8 0zM863.27 754.33 a7.4 7.4 0 1 0 14.8 0 a7.4 7.4 0 1 0 -14.8 0zM799.18 791.33 a7.4 7.4 0 1 0 14.8 0 a7.4 7.4 0 1 0 -14.8 0zM735.09 754.33 a7.4 7.4 0 1 0 14.8 0 a7.4 7.4 0 1 0 -14.8 0zM735.09 680.33 a7.4 7.4 0 1 0 14.8 0 a7.4 7.4 0 1 0 -14.8 0zM927.36 791.33 a7.4 7.4 0 1 0 14.8 0 a7.4 7.4 0 1 0 -14.8 0zM927.36 865.33 a7.4 7.4 0 1 0 14.8 0 a7.4 7.4 0 1 0 -14.8 0zM863.27 902.33 a7.4 7.4 0 1 0 14.8 0 a7.4 7.4 0 1 0 -14.8 0zM799.18 865.33 a7.4 7.4 0 1 0 14.8 0 a7.4 7.4 0 1 0 -14.8 0zM863.27 976.33 a7.4 7.4 0 1 0 14.8 0 a7.4 7.4 0 1 0 -14.8 0zM927.36 1013.33 a7.4 7.4 0 1 0 14.8 0 a7.4 7.4 0 1 0 -14.8 0zM927.36 1087.33 a7.4 7.4 0 1 0 14.8 0 a7.4 7.4 0 1 0 -14.8 0zM863.27 1124.33 a7.4 7.4 0 1 0 14.8 0 a7.4 7.4 0 1 0 -14.8 0zM799.18 1087.33 a7.4 7.4 0 1 0 14.8 0 a7.4 7.4 0 1 0 -14.8 0zM799.18 1013.33 a7.4 7.4 0 1 0 14.8 0 a7.4 7.4 0 1 0 -14.8 0zM991.45 310.33 a7.4 7.4 0 1 0 14.8 0 a7.4 7.4 0 1 0 -14.8 0zM1055.53 347.33 a7.4 7.4 0 1 0 14.8 0 a7.4 7.4 0 1 0 -14.8 0zM1055.53 421.33 a7.4 7.4 0 1 0 14.8 0 a7.4 7.4 0 1 0 -14.8 0zM991.45 458.33 a7.4 7.4 0 1 0 14.8 0 a7.4 7.4 0 1 0 -14.8 0zM927.36 421.33 a7.4 7.4 0 1 0 14.8 0 a7.4 7.4 0 1 0 -14.8 0zM927.36 347.33 a7.4 7.4 0 1 0 14.8 0 a7.4 7.4 0 1 0 -14.8 0zM991.45 532.33 a7.4 7.4 0 1 0 14.8 0 a7.4 7.4 0 1 0 -14.8 0zM927.36 569.33 a7.4 7.4 0 1 0 14.8 0 a7.4 7.4 0 1 0 -14.8 0zM991.45 902.33 a7.4 7.4 0 1 0 14.8 0 a7.4 7.4 0 1 0 -14.8 0zM991.45 976.33 a7.4 7.4 0 1 0 14.8 0 a7.4 7.4 0 1 0 -14.8 0zM991.45 1124.33 a7.4 7.4 0 1 0 14.8 0 a7.4 7.4 0 1 0 -14.8 0zM991.45 1198.33 a7.4 7.4 0 1 0 14.8 0 a7.4 7.4 0 1 0 -14.8 0zM927.36 1235.33 a7.4 7.4 0 1 0 14.8 0 a7.4 7.4 0 1 0 -14.8 0zM863.27 1198.33 a7.4 7.4 0 1 0 14.8 0 a7.4 7.4 0 1 0 -14.8 0zM1055.53 -22.67 a7.4 7.4 0 1 0 14.8 0 a7.4 7.4 0 1 0 -14.8 0zM1119.62 14.33 a7.4 7.4 0 1 0 14.8 0 a7.4 7.4 0 1 0 -14.8 0zM1119.62 88.33 a7.4 7.4 0 1 0 14.8 0 a7.4 7.4 0 1 0 -14.8 0zM1055.53 125.33 a7.4 7.4 0 1 0 14.8 0 a7.4 7.4 0 1 0 -14.8 0zM991.45 88.33 a7.4 7.4 0 1 0 14.8 0 a7.4 7.4 0 1 0 -14.8 0zM991.45 14.33 a7.4 7.4 0 1 0 14.8 0 a7.4 7.4 0 1 0 -14.8 0zM1183.71 125.33 a7.4 7.4 0 1 0 14.8 0 a7.4 7.4 0 1 0 -14.8 0zM1183.71 199.33 a7.4 7.4 0 1 0 14.8 0 a7.4 7.4 0 1 0 -14.8 0zM1119.62 236.33 a7.4 7.4 0 1 0 14.8 0 a7.4 7.4 0 1 0 -14.8 0zM1055.53 199.33 a7.4 7.4 0 1 0 14.8 0 a7.4 7.4 0 1 0 -14.8 0zM1119.62 458.33 a7.4 7.4 0 1 0 14.8 0 a7.4 7.4 0 1 0 -14.8 0zM1119.62 532.33 a7.4 7.4 0 1 0 14.8 0 a7.4 7.4 0 1 0 -14.8 0zM1055.53 569.33 a7.4 7.4 0 1 0 14.8 0 a7.4 7.4 0 1 0 -14.8 0zM1183.71 569.33 a7.4 7.4 0 1 0 14.8 0 a7.4 7.4 0 1 0 -14.8 0zM1183.71 643.33 a7.4 7.4 0 1 0 14.8 0 a7.4 7.4 0 1 0 -14.8 0zM1119.62 680.33 a7.4 7.4 0 1 0 14.8 0 a7.4 7.4 0 1 0 -14.8 0zM1055.53 643.33 a7.4 7.4 0 1 0 14.8 0 a7.4 7.4 0 1 0 -14.8 0zM1119.62 754.33 a7.4 7.4 0 1 0 14.8 0 a7.4 7.4 0 1 0 -14.8 0zM1183.71 791.33 a7.4 7.4 0 1 0 14.8 0 a7.4 7.4 0 1 0 -14.8 0zM1183.71 865.33 a7.4 7.4 0 1 0 14.8 0 a7.4 7.4 0 1 0 -14.8 0zM1119.62 902.33 a7.4 7.4 0 1 0 14.8 0 a7.4 7.4 0 1 0 -14.8 0zM1055.53 865.33 a7.4 7.4 0 1 0 14.8 0 a7.4 7.4 0 1 0 -14.8 0zM1055.53 791.33 a7.4 7.4 0 1 0 14.8 0 a7.4 7.4 0 1 0 -14.8 0zM1119.62 976.33 a7.4 7.4 0 1 0 14.8 0 a7.4 7.4 0 1 0 -14.8 0zM1055.53 1013.33 a7.4 7.4 0 1 0 14.8 0 a7.4 7.4 0 1 0 -14.8 0zM1183.71 1013.33 a7.4 7.4 0 1 0 14.8 0 a7.4 7.4 0 1 0 -14.8 0zM1183.71 1087.33 a7.4 7.4 0 1 0 14.8 0 a7.4 7.4 0 1 0 -14.8 0zM1119.62 1124.33 a7.4 7.4 0 1 0 14.8 0 a7.4 7.4 0 1 0 -14.8 0zM1055.53 1087.33 a7.4 7.4 0 1 0 14.8 0 a7.4 7.4 0 1 0 -14.8 0zM1247.8 310.33 a7.4 7.4 0 1 0 14.8 0 a7.4 7.4 0 1 0 -14.8 0zM1311.88 347.33 a7.4 7.4 0 1 0 14.8 0 a7.4 7.4 0 1 0 -14.8 0zM1311.88 421.33 a7.4 7.4 0 1 0 14.8 0 a7.4 7.4 0 1 0 -14.8 0zM1247.8 458.33 a7.4 7.4 0 1 0 14.8 0 a7.4 7.4 0 1 0 -14.8 0zM1183.71 421.33 a7.4 7.4 0 1 0 14.8 0 a7.4 7.4 0 1 0 -14.8 0zM1183.71 347.33 a7.4 7.4 0 1 0 14.8 0 a7.4 7.4 0 1 0 -14.8 0zM1375.97 88.33 a7.4 7.4 0 1 0 14.8 0 a7.4 7.4 0 1 0 -14.8 0zM1440.06 125.33 a7.4 7.4 0 1 0 14.8 0 a7.4 7.4 0 1 0 -14.8 0zM1440.06 199.33 a7.4 7.4 0 1 0 14.8 0 a7.4 7.4 0 1 0 -14.8 0zM1375.97 236.33 a7.4 7.4 0 1 0 14.8 0 a7.4 7.4 0 1 0 -14.8 0zM1311.88 199.33 a7.4 7.4 0 1 0 14.8 0 a7.4 7.4 0 1 0 -14.8 0zM1311.88 125.33 a7.4 7.4 0 1 0 14.8 0 a7.4 7.4 0 1 0 -14.8 0zM1375.97 458.33 a7.4 7.4 0 1 0 14.8 0 a7.4 7.4 0 1 0 -14.8 0zM1375.97 532.33 a7.4 7.4 0 1 0 14.8 0 a7.4 7.4 0 1 0 -14.8 0zM1311.88 569.33 a7.4 7.4 0 1 0 14.8 0 a7.4 7.4 0 1 0 -14.8 0zM1247.8 532.33 a7.4 7.4 0 1 0 14.8 0 a7.4 7.4 0 1 0 -14.8 0zM1375.97 976.33 a7.4 7.4 0 1 0 14.8 0 a7.4 7.4 0 1 0 -14.8 0zM1440.06 1013.33 a7.4 7.4 0 1 0 14.8 0 a7.4 7.4 0 1 0 -14.8 0zM1440.06 1087.33 a7.4 7.4 0 1 0 14.8 0 a7.4 7.4 0 1 0 -14.8 0zM1375.97 1124.33 a7.4 7.4 0 1 0 14.8 0 a7.4 7.4 0 1 0 -14.8 0zM1311.88 1087.33 a7.4 7.4 0 1 0 14.8 0 a7.4 7.4 0 1 0 -14.8 0zM1311.88 1013.33 a7.4 7.4 0 1 0 14.8 0 a7.4 7.4 0 1 0 -14.8 0zM1504.15 88.33 a7.4 7.4 0 1 0 14.8 0 a7.4 7.4 0 1 0 -14.8 0zM1568.23 125.33 a7.4 7.4 0 1 0 14.8 0 a7.4 7.4 0 1 0 -14.8 0zM1568.23 199.33 a7.4 7.4 0 1 0 14.8 0 a7.4 7.4 0 1 0 -14.8 0zM1504.15 236.33 a7.4 7.4 0 1 0 14.8 0 a7.4 7.4 0 1 0 -14.8 0zM1504.15 310.33 a7.4 7.4 0 1 0 14.8 0 a7.4 7.4 0 1 0 -14.8 0zM1568.23 347.33 a7.4 7.4 0 1 0 14.8 0 a7.4 7.4 0 1 0 -14.8 0zM1568.23 421.33 a7.4 7.4 0 1 0 14.8 0 a7.4 7.4 0 1 0 -14.8 0zM1504.15 458.33 a7.4 7.4 0 1 0 14.8 0 a7.4 7.4 0 1 0 -14.8 0zM1440.06 421.33 a7.4 7.4 0 1 0 14.8 0 a7.4 7.4 0 1 0 -14.8 0zM1440.06 347.33 a7.4 7.4 0 1 0 14.8 0 a7.4 7.4 0 1 0 -14.8 0zM1504.15 532.33 a7.4 7.4 0 1 0 14.8 0 a7.4 7.4 0 1 0 -14.8 0zM1440.06 569.33 a7.4 7.4 0 1 0 14.8 0 a7.4 7.4 0 1 0 -14.8 0zM1632.32 88.33 a7.4 7.4 0 1 0 14.8 0 a7.4 7.4 0 1 0 -14.8 0zM1696.41 125.33 a7.4 7.4 0 1 0 14.8 0 a7.4 7.4 0 1 0 -14.8 0zM1696.41 199.33 a7.4 7.4 0 1 0 14.8 0 a7.4 7.4 0 1 0 -14.8 0zM1632.32 236.33 a7.4 7.4 0 1 0 14.8 0 a7.4 7.4 0 1 0 -14.8 0zM1632.32 458.33 a7.4 7.4 0 1 0 14.8 0 a7.4 7.4 0 1 0 -14.8 0zM1632.32 532.33 a7.4 7.4 0 1 0 14.8 0 a7.4 7.4 0 1 0 -14.8 0zM1568.23 569.33 a7.4 7.4 0 1 0 14.8 0 a7.4 7.4 0 1 0 -14.8 0zM1696.41 569.33 a7.4 7.4 0 1 0 14.8 0 a7.4 7.4 0 1 0 -14.8 0zM1696.41 643.33 a7.4 7.4 0 1 0 14.8 0 a7.4 7.4 0 1 0 -14.8 0zM1632.32 680.33 a7.4 7.4 0 1 0 14.8 0 a7.4 7.4 0 1 0 -14.8 0zM1568.23 643.33 a7.4 7.4 0 1 0 14.8 0 a7.4 7.4 0 1 0 -14.8 0zM1568.23 865.33 a7.4 7.4 0 1 0 14.8 0 a7.4 7.4 0 1 0 -14.8 0zM1632.32 902.33 a7.4 7.4 0 1 0 14.8 0 a7.4 7.4 0 1 0 -14.8 0zM1632.32 976.33 a7.4 7.4 0 1 0 14.8 0 a7.4 7.4 0 1 0 -14.8 0zM1568.23 1013.33 a7.4 7.4 0 1 0 14.8 0 a7.4 7.4 0 1 0 -14.8 0zM1504.15 976.33 a7.4 7.4 0 1 0 14.8 0 a7.4 7.4 0 1 0 -14.8 0zM1504.15 902.33 a7.4 7.4 0 1 0 14.8 0 a7.4 7.4 0 1 0 -14.8 0zM1696.41 1013.33 a7.4 7.4 0 1 0 14.8 0 a7.4 7.4 0 1 0 -14.8 0zM1696.41 1087.33 a7.4 7.4 0 1 0 14.8 0 a7.4 7.4 0 1 0 -14.8 0zM1632.32 1124.33 a7.4 7.4 0 1 0 14.8 0 a7.4 7.4 0 1 0 -14.8 0zM1568.23 1087.33 a7.4 7.4 0 1 0 14.8 0 a7.4 7.4 0 1 0 -14.8 0zM1696.41 -22.67 a7.4 7.4 0 1 0 14.8 0 a7.4 7.4 0 1 0 -14.8 0zM1760.5 14.33 a7.4 7.4 0 1 0 14.8 0 a7.4 7.4 0 1 0 -14.8 0zM1760.5 88.33 a7.4 7.4 0 1 0 14.8 0 a7.4 7.4 0 1 0 -14.8 0zM1632.32 14.33 a7.4 7.4 0 1 0 14.8 0 a7.4 7.4 0 1 0 -14.8 0zM1824.59 125.33 a7.4 7.4 0 1 0 14.8 0 a7.4 7.4 0 1 0 -14.8 0zM1824.59 199.33 a7.4 7.4 0 1 0 14.8 0 a7.4 7.4 0 1 0 -14.8 0zM1760.5 236.33 a7.4 7.4 0 1 0 14.8 0 a7.4 7.4 0 1 0 -14.8 0zM1824.59 -22.67 a7.4 7.4 0 1 0 14.8 0 a7.4 7.4 0 1 0 -14.8 0zM1888.67 14.33 a7.4 7.4 0 1 0 14.8 0 a7.4 7.4 0 1 0 -14.8 0zM1888.67 88.33 a7.4 7.4 0 1 0 14.8 0 a7.4 7.4 0 1 0 -14.8 0zM1888.67 532.33 a7.4 7.4 0 1 0 14.8 0 a7.4 7.4 0 1 0 -14.8 0zM1952.76 569.33 a7.4 7.4 0 1 0 14.8 0 a7.4 7.4 0 1 0 -14.8 0zM1952.76 643.33 a7.4 7.4 0 1 0 14.8 0 a7.4 7.4 0 1 0 -14.8 0zM1888.67 680.33 a7.4 7.4 0 1 0 14.8 0 a7.4 7.4 0 1 0 -14.8 0zM1824.59 643.33 a7.4 7.4 0 1 0 14.8 0 a7.4 7.4 0 1 0 -14.8 0zM1824.59 569.33 a7.4 7.4 0 1 0 14.8 0 a7.4 7.4 0 1 0 -14.8 0zM1888.67 754.33 a7.4 7.4 0 1 0 14.8 0 a7.4 7.4 0 1 0 -14.8 0zM1824.59 791.33 a7.4 7.4 0 1 0 14.8 0 a7.4 7.4 0 1 0 -14.8 0zM1760.5 754.33 a7.4 7.4 0 1 0 14.8 0 a7.4 7.4 0 1 0 -14.8 0zM1760.5 680.33 a7.4 7.4 0 1 0 14.8 0 a7.4 7.4 0 1 0 -14.8 0zM1888.67 976.33 a7.4 7.4 0 1 0 14.8 0 a7.4 7.4 0 1 0 -14.8 0zM1952.76 1013.33 a7.4 7.4 0 1 0 14.8 0 a7.4 7.4 0 1 0 -14.8 0zM1952.76 1087.33 a7.4 7.4 0 1 0 14.8 0 a7.4 7.4 0 1 0 -14.8 0zM1888.67 1124.33 a7.4 7.4 0 1 0 14.8 0 a7.4 7.4 0 1 0 -14.8 0zM1824.59 1087.33 a7.4 7.4 0 1 0 14.8 0 a7.4 7.4 0 1 0 -14.8 0zM1824.59 1013.33 a7.4 7.4 0 1 0 14.8 0 a7.4 7.4 0 1 0 -14.8 0zM2016.85 310.33 a7.4 7.4 0 1 0 14.8 0 a7.4 7.4 0 1 0 -14.8 0zM2080.94 347.33 a7.4 7.4 0 1 0 14.8 0 a7.4 7.4 0 1 0 -14.8 0zM2080.94 421.33 a7.4 7.4 0 1 0 14.8 0 a7.4 7.4 0 1 0 -14.8 0zM2016.85 458.33 a7.4 7.4 0 1 0 14.8 0 a7.4 7.4 0 1 0 -14.8 0zM1952.76 421.33 a7.4 7.4 0 1 0 14.8 0 a7.4 7.4 0 1 0 -14.8 0zM1952.76 347.33 a7.4 7.4 0 1 0 14.8 0 a7.4 7.4 0 1 0 -14.8 0zM2016.85 1124.33 a7.4 7.4 0 1 0 14.8 0 a7.4 7.4 0 1 0 -14.8 0zM2016.85 1198.33 a7.4 7.4 0 1 0 14.8 0 a7.4 7.4 0 1 0 -14.8 0zM1952.76 1235.33 a7.4 7.4 0 1 0 14.8 0 a7.4 7.4 0 1 0 -14.8 0zM1888.67 1198.33 a7.4 7.4 0 1 0 14.8 0 a7.4 7.4 0 1 0 -14.8 0zM2080.94 -22.67 a7.4 7.4 0 1 0 14.8 0 a7.4 7.4 0 1 0 -14.8 0zM2145.02 14.33 a7.4 7.4 0 1 0 14.8 0 a7.4 7.4 0 1 0 -14.8 0zM2145.02 88.33 a7.4 7.4 0 1 0 14.8 0 a7.4 7.4 0 1 0 -14.8 0zM2080.94 125.33 a7.4 7.4 0 1 0 14.8 0 a7.4 7.4 0 1 0 -14.8 0zM2016.85 88.33 a7.4 7.4 0 1 0 14.8 0 a7.4 7.4 0 1 0 -14.8 0zM2016.85 14.33 a7.4 7.4 0 1 0 14.8 0 a7.4 7.4 0 1 0 -14.8 0zM2080.94 643.33 a7.4 7.4 0 1 0 14.8 0 a7.4 7.4 0 1 0 -14.8 0zM2145.02 680.33 a7.4 7.4 0 1 0 14.8 0 a7.4 7.4 0 1 0 -14.8 0zM2145.02 754.33 a7.4 7.4 0 1 0 14.8 0 a7.4 7.4 0 1 0 -14.8 0zM2080.94 791.33 a7.4 7.4 0 1 0 14.8 0 a7.4 7.4 0 1 0 -14.8 0zM2016.85 754.33 a7.4 7.4 0 1 0 14.8 0 a7.4 7.4 0 1 0 -14.8 0zM2016.85 680.33 a7.4 7.4 0 1 0 14.8 0 a7.4 7.4 0 1 0 -14.8 0zM2209.11 791.33 a7.4 7.4 0 1 0 14.8 0 a7.4 7.4 0 1 0 -14.8 0zM2209.11 865.33 a7.4 7.4 0 1 0 14.8 0 a7.4 7.4 0 1 0 -14.8 0zM2145.02 902.33 a7.4 7.4 0 1 0 14.8 0 a7.4 7.4 0 1 0 -14.8 0zM2080.94 865.33 a7.4 7.4 0 1 0 14.8 0 a7.4 7.4 0 1 0 -14.8 0zM2080.94 1087.33 a7.4 7.4 0 1 0 14.8 0 a7.4 7.4 0 1 0 -14.8 0zM2145.02 1124.33 a7.4 7.4 0 1 0 14.8 0 a7.4 7.4 0 1 0 -14.8 0zM2145.02 1198.33 a7.4 7.4 0 1 0 14.8 0 a7.4 7.4 0 1 0 -14.8 0zM2080.94 1235.33 a7.4 7.4 0 1 0 14.8 0 a7.4 7.4 0 1 0 -14.8 0zM2273.2 310.33 a7.4 7.4 0 1 0 14.8 0 a7.4 7.4 0 1 0 -14.8 0zM2337.29 347.33 a7.4 7.4 0 1 0 14.8 0 a7.4 7.4 0 1 0 -14.8 0zM2337.29 421.33 a7.4 7.4 0 1 0 14.8 0 a7.4 7.4 0 1 0 -14.8 0zM2273.2 458.33 a7.4 7.4 0 1 0 14.8 0 a7.4 7.4 0 1 0 -14.8 0zM2209.11 421.33 a7.4 7.4 0 1 0 14.8 0 a7.4 7.4 0 1 0 -14.8 0zM2209.11 347.33 a7.4 7.4 0 1 0 14.8 0 a7.4 7.4 0 1 0 -14.8 0zM2273.2 532.33 a7.4 7.4 0 1 0 14.8 0 a7.4 7.4 0 1 0 -14.8 0zM2337.29 569.33 a7.4 7.4 0 1 0 14.8 0 a7.4 7.4 0 1 0 -14.8 0zM2337.29 643.33 a7.4 7.4 0 1 0 14.8 0 a7.4 7.4 0 1 0 -14.8 0zM2273.2 680.33 a7.4 7.4 0 1 0 14.8 0 a7.4 7.4 0 1 0 -14.8 0zM2209.11 643.33 a7.4 7.4 0 1 0 14.8 0 a7.4 7.4 0 1 0 -14.8 0zM2209.11 569.33 a7.4 7.4 0 1 0 14.8 0 a7.4 7.4 0 1 0 -14.8 0zM2273.2 902.33 a7.4 7.4 0 1 0 14.8 0 a7.4 7.4 0 1 0 -14.8 0zM2273.2 976.33 a7.4 7.4 0 1 0 14.8 0 a7.4 7.4 0 1 0 -14.8 0zM2209.11 1013.33 a7.4 7.4 0 1 0 14.8 0 a7.4 7.4 0 1 0 -14.8 0zM2145.02 976.33 a7.4 7.4 0 1 0 14.8 0 a7.4 7.4 0 1 0 -14.8 0zM2209.11 1087.33 a7.4 7.4 0 1 0 14.8 0 a7.4 7.4 0 1 0 -14.8 0zM2273.2 1124.33 a7.4 7.4 0 1 0 14.8 0 a7.4 7.4 0 1 0 -14.8 0zM2273.2 1198.33 a7.4 7.4 0 1 0 14.8 0 a7.4 7.4 0 1 0 -14.8 0zM2209.11 1235.33 a7.4 7.4 0 1 0 14.8 0 a7.4 7.4 0 1 0 -14.8 0zM2337.29 199.33 a7.4 7.4 0 1 0 14.8 0 a7.4 7.4 0 1 0 -14.8 0zM2401.37 236.33 a7.4 7.4 0 1 0 14.8 0 a7.4 7.4 0 1 0 -14.8 0zM2401.37 310.33 a7.4 7.4 0 1 0 14.8 0 a7.4 7.4 0 1 0 -14.8 0zM2273.2 236.33 a7.4 7.4 0 1 0 14.8 0 a7.4 7.4 0 1 0 -14.8 0zM2401.37 754.33 a7.4 7.4 0 1 0 14.8 0 a7.4 7.4 0 1 0 -14.8 0zM2465.46 791.33 a7.4 7.4 0 1 0 14.8 0 a7.4 7.4 0 1 0 -14.8 0zM2465.46 865.33 a7.4 7.4 0 1 0 14.8 0 a7.4 7.4 0 1 0 -14.8 0zM2401.37 902.33 a7.4 7.4 0 1 0 14.8 0 a7.4 7.4 0 1 0 -14.8 0zM2337.29 865.33 a7.4 7.4 0 1 0 14.8 0 a7.4 7.4 0 1 0 -14.8 0zM2337.29 791.33 a7.4 7.4 0 1 0 14.8 0 a7.4 7.4 0 1 0 -14.8 0zM2529.55 532.33 a7.4 7.4 0 1 0 14.8 0 a7.4 7.4 0 1 0 -14.8 0zM2593.64 569.33 a7.4 7.4 0 1 0 14.8 0 a7.4 7.4 0 1 0 -14.8 0zM2593.64 643.33 a7.4 7.4 0 1 0 14.8 0 a7.4 7.4 0 1 0 -14.8 0zM2529.55 680.33 a7.4 7.4 0 1 0 14.8 0 a7.4 7.4 0 1 0 -14.8 0zM2465.46 643.33 a7.4 7.4 0 1 0 14.8 0 a7.4 7.4 0 1 0 -14.8 0zM2465.46 569.33 a7.4 7.4 0 1 0 14.8 0 a7.4 7.4 0 1 0 -14.8 0zM2465.46 1087.33 a7.4 7.4 0 1 0 14.8 0 a7.4 7.4 0 1 0 -14.8 0zM2529.55 1124.33 a7.4 7.4 0 1 0 14.8 0 a7.4 7.4 0 1 0 -14.8 0zM2529.55 1198.33 a7.4 7.4 0 1 0 14.8 0 a7.4 7.4 0 1 0 -14.8 0zM2465.46 1235.33 a7.4 7.4 0 1 0 14.8 0 a7.4 7.4 0 1 0 -14.8 0zM2401.37 1198.33 a7.4 7.4 0 1 0 14.8 0 a7.4 7.4 0 1 0 -14.8 0zM2401.37 1124.33 a7.4 7.4 0 1 0 14.8 0 a7.4 7.4 0 1 0 -14.8 0z" fill="#03305d"></path><path d="M11.13 -34.34L58.76 -6.84L58.76 48.16L11.13 75.66L-36.5 48.16L-36.5 -6.84zM58.76 1038.16L106.4 1065.66L106.4 1120.66L58.76 1148.16L11.13 1120.66L11.13 1065.66zM106.4 130.66L154.03 158.16L154.03 213.16L106.4 240.66L58.76 213.16L58.76 158.16zM106.4 625.66L154.03 653.16L154.03 708.16L106.4 735.66L58.76 708.16L58.76 653.16zM201.66 790.66L249.29 818.16L249.29 873.16L201.66 900.66L154.03 873.16L154.03 818.16zM249.29 873.16L296.93 900.66L296.93 955.66L249.29 983.16L201.66 955.66L201.66 900.66zM201.66 955.66L249.29 983.16L249.29 1038.16L201.66 1065.66L154.03 1038.16L154.03 983.16zM296.93 625.66L344.56 653.16L344.56 708.16L296.93 735.66L249.29 708.16L249.29 653.16zM344.56 708.16L392.19 735.66L392.19 790.66L344.56 818.16L296.93 790.66L296.93 735.66zM296.93 955.66L344.56 983.16L344.56 1038.16L296.93 1065.66L249.29 1038.16L249.29 983.16zM439.82 213.16L487.46 240.66L487.46 295.66L439.82 323.16L392.19 295.66L392.19 240.66zM392.19 295.66L439.82 323.16L439.82 378.16L392.19 405.66L344.56 378.16L344.56 323.16zM487.46 130.66L535.09 158.16L535.09 213.16L487.46 240.66L439.82 213.16L439.82 158.16zM535.09 543.16L582.72 570.66L582.72 625.66L535.09 653.16L487.46 625.66L487.46 570.66zM535.09 708.16L582.72 735.66L582.72 790.66L535.09 818.16L487.46 790.66L487.46 735.66zM487.46 955.66L535.09 983.16L535.09 1038.16L487.46 1065.66L439.82 1038.16L439.82 983.16zM582.72 130.66L630.36 158.16L630.36 213.16L582.72 240.66L535.09 213.16L535.09 158.16zM582.72 295.66L630.36 323.16L630.36 378.16L582.72 405.66L535.09 378.16L535.09 323.16zM582.72 790.66L630.36 818.16L630.36 873.16L582.72 900.66L535.09 873.16L535.09 818.16zM725.62 543.16L773.25 570.66L773.25 625.66L725.62 653.16L677.99 625.66L677.99 570.66zM725.62 708.16L773.25 735.66L773.25 790.66L725.62 818.16L677.99 790.66L677.99 735.66zM725.62 873.16L773.25 900.66L773.25 955.66L725.62 983.16L677.99 955.66L677.99 900.66zM773.25 460.66L820.89 488.16L820.89 543.16L773.25 570.66L725.62 543.16L725.62 488.16zM773.25 790.66L820.89 818.16L820.89 873.16L773.25 900.66L725.62 873.16L725.62 818.16zM916.15 378.16L963.78 405.66L963.78 460.66L916.15 488.16L868.52 460.66L868.52 405.66zM916.15 873.16L963.78 900.66L963.78 955.66L916.15 983.16L868.52 955.66L868.52 900.66zM916.15 1038.16L963.78 1065.66L963.78 1120.66L916.15 1148.16L868.52 1120.66L868.52 1065.66zM963.78 460.66L1011.42 488.16L1011.42 543.16L963.78 570.66L916.15 543.16L916.15 488.16zM1106.68 48.16L1154.32 75.66L1154.32 130.66L1106.68 158.16L1059.05 130.66L1059.05 75.66zM1106.68 213.16L1154.32 240.66L1154.32 295.66L1106.68 323.16L1059.05 295.66L1059.05 240.66zM1106.68 873.16L1154.32 900.66L1154.32 955.66L1106.68 983.16L1059.05 955.66L1059.05 900.66zM1106.68 1038.16L1154.32 1065.66L1154.32 1120.66L1106.68 1148.16L1059.05 1120.66L1059.05 1065.66zM1201.95 213.16L1249.58 240.66L1249.58 295.66L1201.95 323.16L1154.32 295.66L1154.32 240.66zM1201.95 873.16L1249.58 900.66L1249.58 955.66L1201.95 983.16L1154.32 955.66L1154.32 900.66zM1297.21 48.16L1344.85 75.66L1344.85 130.66L1297.21 158.16L1249.58 130.66L1249.58 75.66zM1249.58 130.66L1297.21 158.16L1297.21 213.16L1249.58 240.66L1201.95 213.16L1201.95 158.16zM1249.58 955.66L1297.21 983.16L1297.21 1038.16L1249.58 1065.66L1201.95 1038.16L1201.95 983.16zM1344.85 295.66L1392.48 323.16L1392.48 378.16L1344.85 405.66L1297.21 378.16L1297.21 323.16zM1344.85 625.66L1392.48 653.16L1392.48 708.16L1344.85 735.66L1297.21 708.16L1297.21 653.16zM1392.48 708.16L1440.11 735.66L1440.11 790.66L1392.48 818.16L1344.85 790.66L1344.85 735.66zM1392.48 1038.16L1440.11 1065.66L1440.11 1120.66L1392.48 1148.16L1344.85 1120.66L1344.85 1065.66zM1487.75 543.16L1535.38 570.66L1535.38 625.66L1487.75 653.16L1440.11 625.66L1440.11 570.66zM1535.38 -34.34L1583.01 -6.84L1583.01 48.16L1535.38 75.66L1487.75 48.16L1487.75 -6.84zM1535.38 130.66L1583.01 158.16L1583.01 213.16L1535.38 240.66L1487.75 213.16L1487.75 158.16zM1583.01 378.16L1630.64 405.66L1630.64 460.66L1583.01 488.16L1535.38 460.66L1535.38 405.66zM1583.01 543.16L1630.64 570.66L1630.64 625.66L1583.01 653.16L1535.38 625.66L1535.38 570.66zM1583.01 1038.16L1630.64 1065.66L1630.64 1120.66L1583.01 1148.16L1535.38 1120.66L1535.38 1065.66zM1630.64 -34.34L1678.28 -6.84L1678.28 48.16L1630.64 75.66L1583.01 48.16L1583.01 -6.84zM1678.28 378.16L1725.91 405.66L1725.91 460.66L1678.28 488.16L1630.64 460.66L1630.64 405.66zM1630.64 460.66L1678.28 488.16L1678.28 543.16L1630.64 570.66L1583.01 543.16L1583.01 488.16zM1773.54 543.16L1821.17 570.66L1821.17 625.66L1773.54 653.16L1725.91 625.66L1725.91 570.66zM1773.54 708.16L1821.17 735.66L1821.17 790.66L1773.54 818.16L1725.91 790.66L1725.91 735.66zM1964.07 378.16L2011.71 405.66L2011.71 460.66L1964.07 488.16L1916.44 460.66L1916.44 405.66zM1916.44 625.66L1964.07 653.16L1964.07 708.16L1916.44 735.66L1868.81 708.16L1868.81 653.16zM1964.07 873.16L2011.71 900.66L2011.71 955.66L1964.07 983.16L1916.44 955.66L1916.44 900.66zM2011.71 -34.34L2059.34 -6.84L2059.34 48.16L2011.71 75.66L1964.07 48.16L1964.07 -6.84zM2011.71 130.66L2059.34 158.16L2059.34 213.16L2011.71 240.66L1964.07 213.16L1964.07 158.16zM2011.71 460.66L2059.34 488.16L2059.34 543.16L2011.71 570.66L1964.07 543.16L1964.07 488.16zM2059.34 873.16L2106.97 900.66L2106.97 955.66L2059.34 983.16L2011.71 955.66L2011.71 900.66zM2154.6 48.16L2202.24 75.66L2202.24 130.66L2154.6 158.16L2106.97 130.66L2106.97 75.66zM2106.97 130.66L2154.6 158.16L2154.6 213.16L2106.97 240.66L2059.34 213.16L2059.34 158.16zM2154.6 543.16L2202.24 570.66L2202.24 625.66L2154.6 653.16L2106.97 625.66L2106.97 570.66zM2106.97 625.66L2154.6 653.16L2154.6 708.16L2106.97 735.66L2059.34 708.16L2059.34 653.16zM2106.97 790.66L2154.6 818.16L2154.6 873.16L2106.97 900.66L2059.34 873.16L2059.34 818.16zM2202.24 130.66L2249.87 158.16L2249.87 213.16L2202.24 240.66L2154.6 213.16L2154.6 158.16zM2202.24 790.66L2249.87 818.16L2249.87 873.16L2202.24 900.66L2154.6 873.16L2154.6 818.16zM2297.5 625.66L2345.13 653.16L2345.13 708.16L2297.5 735.66L2249.87 708.16L2249.87 653.16zM2297.5 955.66L2345.13 983.16L2345.13 1038.16L2297.5 1065.66L2249.87 1038.16L2249.87 983.16zM2440.4 48.16L2488.03 75.66L2488.03 130.66L2440.4 158.16L2392.77 130.66L2392.77 75.66zM2440.4 378.16L2488.03 405.66L2488.03 460.66L2440.4 488.16L2392.77 460.66L2392.77 405.66zM2440.4 1038.16L2488.03 1065.66L2488.03 1120.66L2440.4 1148.16L2392.77 1120.66L2392.77 1065.66zM2535.67 48.16L2583.3 75.66L2583.3 130.66L2535.67 158.16L2488.03 130.66L2488.03 75.66zM2535.67 543.16L2583.3 570.66L2583.3 625.66L2535.67 653.16L2488.03 625.66L2488.03 570.66zM2535.67 1038.16L2583.3 1065.66L2583.3 1120.66L2535.67 1148.16L2488.03 1120.66L2488.03 1065.66z" stroke="rgba(6, 80, 156, 0.93)" stroke-width="2"></path></g><defs><mask id="SvgjsMask1105"><rect width="2560" height="1080" fill="#ffffff"></rect></mask></defs></svg>